<svg width="121" height="24" viewBox="0 0 121 24" fill="none" xmlns="http://www.w3.org/2000/svg">
<path d="M0.520508 9.79569C0.520508 8.25539 0.897806 6.83289 1.65221 5.52839C2.42231 4.22379 3.45971 3.19429 4.76431 2.43989C6.06881 1.66969 7.49121 1.28459 9.03161 1.28459C10.6033 1.28459 12.0572 1.69329 13.3932 2.51059C14.7291 3.31219 15.7586 4.38099 16.4816 5.71699L13.7704 7.15509C13.2989 6.32209 12.6387 5.65409 11.79 5.15109C10.9412 4.63249 10.0218 4.37309 9.03161 4.37309C8.05711 4.37309 7.14551 4.61679 6.29671 5.10399C5.46371 5.59119 4.80351 6.25139 4.31631 7.08439C3.82911 7.91739 3.58541 8.82119 3.58541 9.79569C3.58541 10.7702 3.82911 11.6739 4.31631 12.5069C4.80351 13.34 5.46371 14.0001 6.29671 14.4873C7.14551 14.9746 8.05711 15.2182 9.03161 15.2182C10.0532 15.2182 10.9805 14.9589 11.8136 14.4402C12.6623 13.9215 13.3224 13.2299 13.794 12.3655L16.5052 13.8508C15.7822 15.2025 14.7527 16.287 13.4167 17.1043C12.0807 17.9059 10.619 18.3067 9.03161 18.3067C7.49121 18.3067 6.06881 17.9295 4.76431 17.175C3.45971 16.4049 2.42231 15.3675 1.65221 14.063C0.897806 12.7584 0.520508 11.336 0.520508 9.79569ZM21.6701 14.6759C21.6701 14.9274 21.7329 15.1082 21.8587 15.2182C21.9844 15.3282 22.1809 15.3832 22.4481 15.3832C22.6524 15.3832 22.896 15.3597 23.179 15.3125V18.0002C22.5974 18.0945 22.0552 18.1417 21.5522 18.1417C20.6406 18.1417 19.9412 17.9059 19.4539 17.4344C18.9824 16.9471 18.7466 16.0905 18.7466 14.8646V1.49679H21.6701V14.6759ZM30.3653 5.90559C31.497 5.90559 32.5107 6.18849 33.4066 6.75429C34.3182 7.30439 35.0255 8.05099 35.5285 8.99409C36.0314 9.93709 36.2829 10.9823 36.2829 12.1297C36.2829 12.5069 36.2515 12.8527 36.1886 13.1671H27.0882C27.324 14.0001 27.7405 14.6524 28.3377 15.1239C28.935 15.5797 29.6973 15.8076 30.6246 15.8076C31.1905 15.8076 31.7327 15.6819 32.2514 15.4304C32.7858 15.1789 33.1866 14.8567 33.4538 14.4638L35.6935 15.784C35.1434 16.6013 34.4283 17.23 33.5481 17.6701C32.6836 18.0945 31.6856 18.3067 30.5539 18.3067C29.2965 18.3067 28.1806 18.0395 27.2061 17.5051C26.2316 16.9707 25.4771 16.232 24.9428 15.2889C24.4241 14.3459 24.1647 13.285 24.1647 12.1061C24.1647 10.943 24.4241 9.88999 24.9428 8.94689C25.4771 8.00389 26.2159 7.26519 27.1589 6.73079C28.102 6.18059 29.1708 5.90559 30.3653 5.90559ZM33.5481 10.8802C33.4223 10.1257 33.0687 9.53629 32.4872 9.11199C31.9213 8.67189 31.2062 8.45179 30.3417 8.45179C29.7445 8.45179 29.1943 8.56179 28.6914 8.78189C28.2041 9.00189 27.8112 9.30059 27.5126 9.67779C27.2139 10.055 27.0568 10.4558 27.041 10.8802H33.5481ZM47.374 6.21209H50.298V18.0002H47.374V16.845C46.824 17.3165 46.219 17.6859 45.559 17.953C44.915 18.2045 44.231 18.3303 43.5079 18.3303C42.3134 18.3303 41.2682 18.0631 40.3723 17.5287C39.4764 16.9943 38.7848 16.2556 38.2976 15.3125C37.8261 14.3695 37.5903 13.3085 37.5903 12.1297C37.5903 10.9509 37.8261 9.88999 38.2976 8.94689C38.7848 8.00389 39.4764 7.26519 40.3723 6.73079C41.2682 6.18059 42.3134 5.90559 43.5079 5.90559C44.231 5.90559 44.915 6.03919 45.559 6.30639C46.219 6.55789 46.824 6.91939 47.374 7.39089V6.21209ZM43.8852 15.5247C44.53 15.5247 45.111 15.3832 45.63 15.1003C46.164 14.8017 46.581 14.393 46.879 13.8744C47.194 13.3557 47.351 12.7663 47.351 12.1061C47.351 11.1159 47.013 10.3065 46.337 9.67779C45.677 9.04909 44.86 8.73469 43.8852 8.73469C42.895 8.73469 42.0777 9.05689 41.4332 9.70139C40.8045 10.3301 40.4902 11.1395 40.4902 12.1297C40.4902 13.1199 40.8045 13.9372 41.4332 14.5816C42.0777 15.2103 42.895 15.5247 43.8852 15.5247ZM59.294 5.90559C59.985 5.90559 60.685 6.05489 61.392 6.35349C62.115 6.63649 62.728 7.15509 63.231 7.90959C63.749 8.66399 64.009 9.67779 64.009 10.9509V18.0002H61.085V10.9509C61.085 10.0707 60.834 9.44199 60.331 9.06479C59.844 8.67189 59.27 8.47539 58.61 8.47539C57.95 8.47539 57.384 8.71119 56.912 9.18269C56.457 9.63849 56.229 10.3772 56.229 11.3989V18.0002H53.305V6.21209H56.229V7.20229C56.653 6.80929 57.125 6.49499 57.643 6.25919C58.162 6.02349 58.712 5.90559 59.294 5.90559ZM67.845 4.25529C67.295 4.25529 66.863 4.10589 66.549 3.80729C66.234 3.50869 66.077 3.09999 66.077 2.58129C66.077 2.04689 66.234 1.63039 66.549 1.33179C66.863 1.03319 67.295 0.883789 67.845 0.883789C68.396 0.883789 68.828 1.03319 69.142 1.33179C69.456 1.63039 69.614 2.04689 69.614 2.58129C69.614 3.08429 69.449 3.49299 69.119 3.80729C68.804 4.10589 68.38 4.25529 67.845 4.25529ZM66.36 18.0002V6.21209H69.284V18.0002H66.36ZM78.196 5.90559C78.888 5.90559 79.587 6.05489 80.294 6.35349C81.017 6.63649 81.63 7.15509 82.133 7.90959C82.652 8.66399 82.911 9.67779 82.911 10.9509V18.0002H79.988V10.9509C79.988 10.0707 79.736 9.44199 79.233 9.06479C78.746 8.67189 78.172 8.47539 77.512 8.47539C76.852 8.47539 76.286 8.71119 75.815 9.18269C75.359 9.63849 75.131 10.3772 75.131 11.3989V18.0002H72.208V6.21209H75.131V7.20229C75.555 6.80929 76.027 6.49499 76.546 6.25919C77.064 6.02349 77.614 5.90559 78.196 5.90559ZM94.504 6.21209H97.428V17.4108C97.428 18.5267 97.145 19.5091 96.579 20.3578C96.029 21.2066 95.259 21.8588 94.269 22.3147C93.278 22.7862 92.17 23.0219 90.944 23.0219C89.577 23.0219 88.335 22.7547 87.219 22.2203C86.103 21.7017 85.318 21.018 84.862 20.1692L87.361 18.7311C87.597 19.1869 88.037 19.5641 88.681 19.8627C89.326 20.1771 90.104 20.3342 91.015 20.3342C92.021 20.3342 92.854 20.0592 93.514 19.5091C94.174 18.9747 94.504 18.2753 94.504 17.4108V16.8685C93.97 17.3401 93.373 17.7016 92.713 17.953C92.053 18.2045 91.369 18.3303 90.662 18.3303C89.467 18.3303 88.422 18.0631 87.526 17.5287C86.63 16.9943 85.938 16.2556 85.451 15.3125C84.98 14.3695 84.744 13.3085 84.744 12.1297C84.744 10.9509 84.98 9.88999 85.451 8.94689C85.938 8.00389 86.63 7.26519 87.526 6.73079C88.422 6.18059 89.467 5.90559 90.662 5.90559C91.369 5.90559 92.045 6.03919 92.689 6.30639C93.349 6.55789 93.954 6.91149 94.504 7.36729V6.21209ZM91.039 15.5247C91.683 15.5247 92.265 15.3832 92.783 15.1003C93.318 14.8017 93.734 14.393 94.033 13.8744C94.347 13.3557 94.504 12.7663 94.504 12.1061C94.504 11.1159 94.167 10.3065 93.491 9.67779C92.831 9.04909 92.013 8.73469 91.039 8.73469C90.049 8.73469 89.231 9.05689 88.587 9.70139C87.958 10.3301 87.644 11.1395 87.644 12.1297C87.644 13.1199 87.958 13.9372 88.587 14.5816C89.231 15.2103 90.049 15.5247 91.039 15.5247ZM115.072 9.72489L120.423 18.0002H116.746L112.926 12.0826L109.107 18.0002H105.429L110.781 9.72489L105.452 1.49679H109.13L112.926 7.36729L116.722 1.49679H120.4L115.072 9.72489Z" fill="#211F54"/>
</svg>
